<svg xmlns="http://www.w3.org/2000/svg" id="Layer_1" viewBox="0 0 80 40" width="80" height="40"><style>.st0{fill:#467366}</style><path d="M25.3 20.7c-6.7-1.8-14.2-.1-19.4 5.2C2 29.8 0 34.9 0 40h2c0-4.6 1.8-9.2 5.3-12.7.5-.5 1-.9 1.5-1.3v9.8L4.5 40h2.8l16.5-16.4c.7 5.4-1 11-5.2 15.1-.5.5-1 .9-1.5 1.3h3c5.3-5.3 7-12.7 5.2-19.3zm-14.5 13v-9.2c3.5-2.1 7.6-2.9 11.6-2.4L10.8 33.7zM65.3.7C58.6-1 51.2.7 45.9 5.9c-5.2 5.2-7 12.6-5.2 19.3 6.7 1.8 14.1.1 19.3-5.2 5.3-5.2 7-12.6 5.3-19.3zM50.8 4.6c3.5-2.1 7.6-2.9 11.6-2.4L50.8 13.8V4.6zm-3.5 2.7c.5-.5 1-.9 1.5-1.3v9.7l-6.6 6.6c-.7-5.3 1-10.9 5.1-15zm11.4 11.4c-4.1 4.1-9.7 5.8-15 5.1L63.8 3.6c.7 5.4-1 11-5.1 15.1zM17.2 0C13.3 3.1 8.3 4.4 3.6 3.8L7.4 0H4.6L2.2 2.4C2.1 1.6 2.1.8 2.1 0h-2c0 1.8.2 3.5.7 5.3 6.6 1.7 14 0 19.3-5.2l.1-.1h-3z" class="st0"/></svg>